<svg width="48" height="49" viewBox="0 0 48 49" fill="none" xmlns="http://www.w3.org/2000/svg">
<g clip-path="url(#clip0_7850_11167)">
<path d="M24 4.5C12.96 4.5 4 13.46 4 24.5C4 35.54 12.96 44.5 24 44.5C35.04 44.5 44 35.54 44 24.5C44 13.46 35.04 4.5 24 4.5ZM24 10.5C27.32 10.5 30 13.18 30 16.5C30 19.82 27.32 22.5 24 22.5C20.68 22.5 18 19.82 18 16.5C18 13.18 20.68 10.5 24 10.5ZM24 38.9C19 38.9 14.58 36.34 12 32.46C12.06 28.48 20 26.3 24 26.3C27.98 26.3 35.94 28.48 36 32.46C33.42 36.34 29 38.9 24 38.9Z" fill="#A6A6A6"/>
</g>
<defs>
<clipPath id="clip0_7850_11167">
<rect width="48" height="48" fill="white" transform="translate(0 0.5)"/>
</clipPath>
</defs>
</svg>
